<svg xmlns="http://www.w3.org/2000/svg" viewBox="0 0 1200 800" role="img" aria-label="PUKA court training chamber overlay">
<defs><linearGradient id="oak"><stop stop-color="#26160b"/><stop offset=".5" stop-color="#795027"/><stop offset="1" stop-color="#1b1008"/></linearGradient><radialGradient id="gold"><stop stop-color="#ffe09a" stop-opacity=".42"/><stop offset="1" stop-color="#ffe09a" stop-opacity="0"/></radialGradient></defs>
<g opacity=".82"><path d="M0 620h1200v180H0z" fill="#090a08"/><path d="M75 800V250h92v550M1033 800V250h92v550" fill="url(#oak)" stroke="#c59b55" stroke-opacity=".42" stroke-width="6"/><path d="M48 268h146v32H48zM1006 268h146v32h-146z" fill="#51331a"/><path d="M270 85h170v330H270zM760 85h170v330H760z" fill="#102822" stroke="#b69753" stroke-opacity=".36" stroke-width="7"/><path d="M294 112h122v276H294zM784 112h122v276H784z" fill="#1c5447" opacity=".46"/></g>
<g fill="url(#gold)"><circle cx="120" cy="210" r="155"/><circle cx="1080" cy="210" r="155"/></g>
<g opacity=".48"><path d="M318 122h74v220l-37-38-37 38zM808 122h74v220l-37-38-37 38z" fill="#5a283d" stroke="#d1af61" stroke-width="4"/><text x="355" y="235" text-anchor="middle" font-family="Georgia,serif" font-size="66" fill="#dfc06d">✦</text><text x="845" y="235" text-anchor="middle" font-family="Georgia,serif" font-size="66" fill="#dfc06d">✦</text></g>
<g opacity=".28" fill="none" stroke="#d6b868" stroke-width="6"><circle cx="600" cy="205" r="110"/><circle cx="600" cy="205" r="82" stroke-dasharray="8 14"/><path d="M600 118l26 53 58 8-42 41 10 58-52-28-52 28 10-58-42-41 58-8z"/></g>
<ellipse cx="600" cy="685" rx="410" ry="78" fill="#000" opacity=".27"/>
</svg>