<svg xmlns="http://www.w3.org/2000/svg" viewBox="0 0 180 252">
  <defs>
    <linearGradient id="bg" x1="0" y1="0" x2="1" y2="1">
      <stop offset="0" stop-color="#0b1220"/>
      <stop offset=".52" stop-color="#18283a"/>
      <stop offset="1" stop-color="#090d13"/>
    </linearGradient>
    <radialGradient id="g" cx="50%" cy="42%" r="62%">
      <stop offset="0" stop-color="#efd98a" stop-opacity=".28"/>
      <stop offset="1" stop-color="#efd98a" stop-opacity="0"/>
    </radialGradient>
    <pattern id="p" width="18" height="18" patternUnits="userSpaceOnUse" patternTransform="rotate(45)">
      <path d="M0 9H18M9 0V18" stroke="#d8bd6a" stroke-opacity=".09" stroke-width="1"/>
    </pattern>
  </defs>
  <rect x="2" y="2" width="176" height="248" rx="18" fill="url(#bg)" stroke="#e5cb77" stroke-width="4"/>
  <rect x="10" y="10" width="160" height="232" rx="13" fill="url(#p)" stroke="#8e7540" stroke-width="1.5"/>
  <rect x="18" y="18" width="144" height="216" rx="10" fill="url(#g)" stroke="#d9bd68" stroke-opacity=".5"/>
  <g fill="none" stroke="#e8ce79" stroke-width="2.2" stroke-linecap="round" stroke-linejoin="round">
    <path d="M53 97c9-18 20-30 37-40 17 10 28 22 37 40-8-4-16-5-24-2l-13 7-13-7c-8-3-16-2-24 2Z"/>
    <path d="M62 98l8 29h40l8-29M72 126c9 6 27 6 36 0"/>
    <path d="M48 146c10 12 25 19 42 19s32-7 42-19"/>
    <path d="M58 173h64"/>
  </g>
  <text x="90" y="151" text-anchor="middle" fill="#f4df95" font-size="46" font-family="Georgia,serif" font-weight="700">P</text>
  <text x="90" y="199" text-anchor="middle" fill="#d8bd6a" font-size="12" font-family="system-ui,sans-serif" font-weight="800" letter-spacing="5">PUKA</text>
  <circle cx="90" cy="126" r="62" fill="none" stroke="#8e7540" stroke-width="1" stroke-dasharray="2 6"/>
</svg>
